# xmcd CD database file
#
# Track frame offsets:
#	150
#	19611
#	51204
#	79326
#	206657
#	227504
#	261802
#	284915
#	314073
#	331431
#
# Disc length: 4665 seconds
#
# Revision: 0
# Processed by: cddbd v1.5.2PL0 Copyright (c) Steve Scherf et al.
# Submitted via: CDex 1.70beta2
#
DISCID=9512370a
DTITLE=Various Artist - Les Trésors Du Jazz 1954 (8)
DYEAR=2006
DGENRE=Jazz
TTITLE0=The Sauter-Finegan Orchestra, The Loop
TTITLE1=Al Cohn, Serenade For Kathy
TTITLE2=Charlie Shavers, Moten Swing
TTITLE3=JATP, Stompin' At The Savoy
TTITLE4=Charles Mingus, Gettin' Together
TTITLE5=Paul Quinichette, Plush Life
TTITLE6=Frank Rosolino, Ragamuffin
TTITLE7=Stan Getz, Pernod
TTITLE8=Gerry Mulligan, Soft Shoe
TTITLE9=Horace Silver, Stop Time
EXTD=YEAR: 2006
EXTT0=
EXTT1=
EXTT2=
EXTT3=
EXTT4=
EXTT5=
EXTT6=
EXTT7=
EXTT8=
EXTT9=
PLAYORDER=
